<?xml version="1.0" encoding="UTF-8"?>
<svg xmlns="http://www.w3.org/2000/svg" xmlns:xlink="http://www.w3.org/1999/xlink" width="30pt" height="25pt" viewBox="0 0 30 25" version="1.1">
<g id="surface1">
<path style=" stroke:none;fill-rule:nonzero;fill:rgb(0%,0%,0%);fill-opacity:1;" d="M 14.332031 1.710938 C 14.179688 1.738281 14 1.8125 13.925781 1.882812 C 13.84375 1.957031 13.648438 2.085938 13.492188 2.175781 C 13.132812 2.382812 12.960938 2.574219 12.636719 3.175781 C 12.210938 3.949219 12.210938 4.71875 12.632812 5.292969 C 12.730469 5.4375 12.8125 5.585938 12.8125 5.636719 C 12.8125 5.679688 12.960938 5.875 13.148438 6.070312 C 13.449219 6.367188 13.5625 6.4375 14.105469 6.625 C 14.445312 6.742188 14.832031 6.84375 14.96875 6.84375 C 15.105469 6.84375 15.5 6.742188 15.835938 6.625 C 16.386719 6.429688 16.488281 6.367188 16.789062 6.054688 C 16.976562 5.863281 17.125 5.675781 17.125 5.644531 C 17.125 5.605469 17.230469 5.414062 17.363281 5.199219 C 17.585938 4.832031 17.59375 4.8125 17.582031 4.242188 C 17.574219 3.675781 17.570312 3.65625 17.269531 3.125 C 16.914062 2.480469 16.695312 2.273438 15.832031 1.792969 C 15.65625 1.695312 14.707031 1.644531 14.332031 1.710938 Z M 14.332031 1.710938 "/>
<path style=" stroke:none;fill-rule:nonzero;fill:rgb(0%,0%,0%);fill-opacity:1;" d="M 9.324219 7.476562 C 8.882812 7.699219 8.519531 8.101562 8.46875 8.414062 C 8.445312 8.5625 8.457031 8.761719 8.492188 8.855469 C 8.636719 9.238281 9.53125 10.257812 9.882812 10.445312 C 9.976562 10.488281 10.0625 10.570312 10.082031 10.617188 C 10.101562 10.667969 10.269531 10.789062 10.449219 10.882812 C 10.632812 10.96875 10.875 11.113281 10.988281 11.199219 C 11.101562 11.28125 11.386719 11.417969 11.625 11.5 C 11.867188 11.582031 12.144531 11.699219 12.238281 11.769531 C 12.488281 11.945312 12.5625 11.960938 13.480469 12.0625 C 14.542969 12.179688 15.429688 12.179688 16.492188 12.0625 C 17.175781 11.988281 17.386719 11.9375 17.617188 11.804688 C 17.773438 11.71875 18.09375 11.574219 18.324219 11.5 C 18.554688 11.417969 18.835938 11.28125 18.949219 11.199219 C 19.0625 11.113281 19.28125 10.980469 19.4375 10.90625 C 19.585938 10.824219 19.792969 10.695312 19.886719 10.601562 C 19.976562 10.511719 20.210938 10.292969 20.40625 10.125 C 20.867188 9.71875 20.898438 9.679688 21.1875 9.289062 C 21.480469 8.875 21.542969 8.582031 21.40625 8.238281 C 21.25 7.84375 20.550781 7.34375 20.15625 7.34375 C 19.9375 7.34375 19.257812 7.742188 18.9375 8.0625 C 18.554688 8.445312 18.101562 8.8125 17.875 8.925781 C 17.757812 8.988281 17.5625 9.101562 17.449219 9.1875 C 17.335938 9.269531 17.082031 9.367188 16.886719 9.40625 C 16.695312 9.445312 16.320312 9.542969 16.0625 9.632812 C 15.449219 9.835938 14.769531 9.886719 14.3125 9.75 C 14.125 9.699219 13.65625 9.574219 13.273438 9.476562 C 12.738281 9.335938 12.519531 9.242188 12.289062 9.070312 C 12.125 8.945312 11.957031 8.84375 11.90625 8.84375 C 11.863281 8.84375 11.707031 8.730469 11.554688 8.59375 C 11.40625 8.457031 11.136719 8.207031 10.960938 8.042969 C 10.269531 7.398438 9.792969 7.238281 9.324219 7.476562 Z M 9.324219 7.476562 "/>
<path style=" stroke:none;fill-rule:nonzero;fill:rgb(0%,0%,0%);fill-opacity:1;" d="M 5.074219 11.007812 C 4.617188 11.117188 4.53125 11.21875 4.429688 11.738281 C 4.367188 12.039062 4.375 12.164062 4.460938 12.492188 C 4.5625 12.867188 4.613281 12.929688 5.25 13.570312 C 6.117188 14.445312 6.480469 14.78125 6.554688 14.78125 C 6.585938 14.78125 6.730469 14.882812 6.882812 15.007812 C 7.023438 15.125 7.261719 15.289062 7.398438 15.355469 C 7.542969 15.425781 7.742188 15.5625 7.84375 15.65625 C 7.949219 15.75 8.144531 15.863281 8.28125 15.90625 C 8.417969 15.949219 8.65625 16.074219 8.800781 16.195312 C 8.976562 16.324219 9.199219 16.425781 9.425781 16.46875 C 9.625 16.507812 9.894531 16.617188 10.03125 16.71875 C 10.292969 16.898438 10.570312 16.988281 11.085938 17.0625 C 11.257812 17.085938 11.59375 17.179688 11.835938 17.28125 C 12.449219 17.523438 13.136719 17.59375 14.96875 17.59375 C 16.757812 17.59375 17.5 17.523438 18.03125 17.304688 C 18.238281 17.21875 18.679688 17.101562 19.019531 17.03125 C 19.460938 16.945312 19.699219 16.863281 19.894531 16.726562 C 20.042969 16.617188 20.3125 16.511719 20.519531 16.46875 C 20.761719 16.417969 20.949219 16.332031 21.09375 16.210938 C 21.207031 16.113281 21.4375 15.980469 21.605469 15.925781 C 21.769531 15.875 21.992188 15.75 22.09375 15.65625 C 22.199219 15.5625 22.394531 15.425781 22.539062 15.355469 C 22.675781 15.289062 22.824219 15.179688 22.875 15.125 C 22.917969 15.070312 23.085938 14.949219 23.242188 14.863281 C 23.398438 14.769531 23.632812 14.601562 23.75 14.480469 C 25.445312 12.832031 25.382812 12.90625 25.5 12.375 C 25.574219 12.03125 25.480469 11.414062 25.320312 11.210938 C 25.257812 11.136719 25.042969 11.054688 24.75 10.992188 C 24.3125 10.898438 24.25 10.898438 23.917969 10.992188 C 23.625 11.082031 23.5 11.164062 23.175781 11.507812 C 22.957031 11.730469 22.71875 11.980469 22.636719 12.050781 C 22.554688 12.125 22.386719 12.289062 22.261719 12.40625 C 22.136719 12.53125 21.949219 12.679688 21.84375 12.75 C 21.742188 12.8125 21.617188 12.917969 21.574219 12.980469 C 21.53125 13.042969 21.332031 13.175781 21.136719 13.273438 C 20.945312 13.375 20.730469 13.511719 20.664062 13.582031 C 20.601562 13.65625 20.414062 13.757812 20.25 13.8125 C 20.082031 13.867188 19.832031 13.992188 19.695312 14.09375 C 19.554688 14.195312 19.25 14.324219 19.019531 14.382812 C 18.789062 14.4375 18.46875 14.550781 18.3125 14.625 C 17.882812 14.84375 17.636719 14.886719 16.257812 15.03125 C 15.03125 15.15625 14.945312 15.15625 13.945312 15.0625 C 12.488281 14.917969 12.15625 14.863281 11.695312 14.65625 C 11.460938 14.5625 11.101562 14.429688 10.875 14.375 C 10.648438 14.320312 10.375 14.199219 10.261719 14.113281 C 10.144531 14.023438 9.90625 13.898438 9.730469 13.835938 C 9.554688 13.773438 9.34375 13.65625 9.257812 13.570312 C 9.167969 13.488281 8.96875 13.355469 8.8125 13.28125 C 8.53125 13.136719 8.164062 12.851562 7.75 12.445312 C 7.632812 12.332031 7.46875 12.199219 7.394531 12.164062 C 7.320312 12.125 7.210938 12.011719 7.148438 11.917969 C 7.09375 11.820312 6.96875 11.6875 6.875 11.625 C 6.78125 11.5625 6.65625 11.429688 6.601562 11.335938 C 6.398438 11 5.710938 10.851562 5.074219 11.007812 Z M 5.074219 11.007812 "/>
<path style=" stroke:none;fill-rule:nonzero;fill:rgb(0%,0%,0%);fill-opacity:1;" d="M 0.898438 14.414062 C 0.792969 14.445312 0.574219 14.605469 0.414062 14.773438 C 0.136719 15.074219 0.125 15.105469 0.125 15.460938 C 0.125 15.917969 0.1875 16.085938 0.488281 16.449219 C 0.925781 16.980469 2.46875 18.480469 2.824219 18.726562 C 3.019531 18.855469 3.199219 18.992188 3.21875 19.03125 C 3.238281 19.070312 3.414062 19.195312 3.601562 19.3125 C 3.789062 19.429688 3.9375 19.554688 3.9375 19.585938 C 3.9375 19.617188 4.054688 19.699219 4.207031 19.769531 C 4.351562 19.835938 4.523438 19.957031 4.59375 20.03125 C 4.664062 20.105469 4.867188 20.238281 5.050781 20.320312 C 5.238281 20.398438 5.46875 20.539062 5.570312 20.617188 C 5.664062 20.699219 5.894531 20.820312 6.074219 20.875 C 6.257812 20.9375 6.511719 21.070312 6.644531 21.167969 C 6.773438 21.269531 7.0625 21.40625 7.28125 21.460938 C 7.507812 21.523438 7.792969 21.648438 7.925781 21.738281 C 8.054688 21.832031 8.351562 21.945312 8.625 22 C 8.882812 22.050781 9.28125 22.179688 9.507812 22.28125 C 9.8125 22.417969 10.144531 22.5 10.789062 22.59375 C 11.261719 22.664062 11.832031 22.773438 12.042969 22.835938 C 12.585938 23.011719 13.5 23.09375 14.929688 23.09375 C 16.386719 23.09375 17.320312 23.011719 17.875 22.84375 C 18.101562 22.773438 18.675781 22.65625 19.15625 22.585938 C 19.804688 22.492188 20.125 22.417969 20.40625 22.28125 C 20.613281 22.1875 21.007812 22.054688 21.28125 22.007812 C 21.585938 21.945312 21.867188 21.835938 22.011719 21.738281 C 22.144531 21.648438 22.429688 21.523438 22.65625 21.460938 C 22.875 21.40625 23.164062 21.269531 23.292969 21.167969 C 23.425781 21.070312 23.664062 20.9375 23.824219 20.886719 C 23.988281 20.832031 24.226562 20.707031 24.355469 20.605469 C 24.488281 20.5 24.699219 20.382812 24.832031 20.335938 C 24.957031 20.292969 25.195312 20.148438 25.351562 20.019531 C 25.511719 19.886719 25.675781 19.78125 25.71875 19.78125 C 25.757812 19.78125 25.84375 19.71875 25.914062 19.648438 C 25.976562 19.574219 26.164062 19.425781 26.320312 19.320312 C 27.519531 18.507812 29.613281 16.460938 29.761719 15.949219 C 29.78125 15.875 29.800781 15.648438 29.804688 15.449219 C 29.8125 15.101562 29.800781 15.074219 29.523438 14.78125 C 29.21875 14.449219 28.96875 14.34375 28.53125 14.34375 C 27.980469 14.34375 27.976562 14.351562 26.769531 15.601562 C 25.917969 16.476562 24.40625 17.71875 24.195312 17.71875 C 24.15625 17.71875 24.019531 17.820312 23.886719 17.9375 C 23.757812 18.054688 23.511719 18.207031 23.351562 18.273438 C 23.1875 18.351562 22.96875 18.476562 22.855469 18.554688 C 22.742188 18.636719 22.488281 18.769531 22.289062 18.851562 C 22.082031 18.925781 21.789062 19.0625 21.636719 19.164062 C 21.488281 19.257812 21.25 19.351562 21.105469 19.375 C 20.960938 19.398438 20.648438 19.511719 20.40625 19.625 C 20.132812 19.757812 19.757812 19.875 19.394531 19.9375 C 19.082031 19.988281 18.644531 20.101562 18.425781 20.179688 C 17.800781 20.417969 17.023438 20.488281 14.96875 20.488281 C 12.90625 20.488281 12.144531 20.417969 11.507812 20.179688 C 11.28125 20.09375 10.832031 19.980469 10.507812 19.929688 C 10.085938 19.863281 9.8125 19.78125 9.585938 19.65625 C 9.414062 19.554688 9.117188 19.4375 8.929688 19.398438 C 8.742188 19.363281 8.398438 19.226562 8.15625 19.09375 C 7.917969 18.960938 7.644531 18.84375 7.554688 18.824219 C 7.46875 18.800781 7.300781 18.710938 7.179688 18.625 C 7.0625 18.539062 6.8125 18.394531 6.625 18.304688 C 6.4375 18.21875 6.195312 18.0625 6.082031 17.960938 C 5.960938 17.863281 5.851562 17.78125 5.820312 17.78125 C 5.761719 17.78125 5.136719 17.335938 4.570312 16.886719 C 4.03125 16.476562 3.679688 16.136719 2.382812 14.800781 C 2.199219 14.613281 1.957031 14.429688 1.851562 14.398438 C 1.613281 14.332031 1.15625 14.335938 0.898438 14.414062 Z M 0.898438 14.414062 "/>
</g>
</svg>
