 <svg version="1.0" xmlns="http://www.w3.org/2000/svg" width="25px" height="25px" viewBox="160 130 430 400" preserveAspectRatio="xMidYMid meet">
<metadata>
Created by potrace 1.12, written by Peter Selinger 2001-2015
</metadata>
<g transform="translate(0.000000,700.000000) scale(0.100000,-0.100000)" fill="#000000" stroke="none">
<path d="M2982 5762 c-35 -37 -67 -71 -72 -76 -4 -4 -24 -24 -43 -43 -19 -19
-39 -39 -43 -44 -5 -5 -64 -63 -131 -129 -68 -65 -123 -124 -123 -129 0 -5
-16 -19 -35 -31 -39 -24 -79 -102 -70 -137 6 -25 67 -87 446 -455 270 -263
309 -298 328 -298 26 0 94 43 109 70 9 15 29 35 43 44 15 9 37 31 48 49 11 18
31 39 44 46 13 7 31 26 41 41 9 16 30 37 46 46 15 10 33 28 39 40 6 13 26 34
45 46 19 12 42 35 51 50 8 15 29 35 45 44 15 10 34 28 41 42 7 13 26 30 41 38
51 27 66 99 27 132 -23 18 -203 191 -424 407 -313 306 -324 315 -358 314 -26
0 -44 -12 -95 -67z"></path>
<path d="M4345 5296 c-30 -14 -134 -117 -590 -586 -136 -140 -323 -329 -416
-420 -119 -117 -169 -172 -169 -188 0 -25 -8 -24 160 -26 119 -2 128 -4 190
-34 36 -18 72 -32 80 -32 38 0 95 -24 128 -54 20 -18 47 -36 59 -40 29 -9 192
-185 217 -234 10 -20 30 -51 43 -69 38 -49 66 -202 68 -360 0 -73 4 -135 8
-139 9 -10 52 21 111 80 28 28 245 249 481 490 237 242 467 476 511 520 81 80
134 156 134 190 0 10 -14 45 -32 78 -25 46 -67 93 -183 202 -157 148 -315 300
-519 500 -67 65 -131 122 -144 127 -34 13 -102 10 -137 -5z"></path>
<path d="M3117 3826 c-118 -40 -133 -48 -182 -96 -53 -52 -54 -54 -40 -81 8
-15 70 -82 137 -148 68 -67 241 -238 386 -382 326 -322 311 -316 408 -174 47
68 53 86 71 190 23 141 2 346 -43 408 -13 17 -37 55 -53 82 -19 31 -56 69 -97
100 -87 66 -75 59 -189 102 -81 30 -116 38 -185 40 -79 3 -95 0 -213 -41z"></path>
<path d="M4895 3674 c-104 -107 -198 -202 -208 -212 -10 -9 -31 -30 -47 -47
-33 -34 -38 -39 -120 -118 -33 -32 -60 -64 -60 -72 0 -7 48 -61 108 -119 59
-58 114 -113 122 -123 8 -9 27 -29 42 -43 16 -14 121 -117 235 -230 115 -113
218 -212 229 -220 12 -8 33 -24 48 -34 l27 -19 47 34 c40 28 82 65 144 127
344 344 448 454 448 474 0 24 -32 58 -366 386 -310 304 -426 412 -443 411 -9
0 -101 -88 -206 -195z"></path>
<path d="M2468 3630 c-49 -9 -65 -24 -96 -90 -23 -50 -26 -67 -26 -180 -1
-106 3 -140 25 -220 15 -52 32 -121 39 -152 7 -34 23 -71 40 -93 16 -20 34
-53 41 -73 6 -20 28 -57 48 -81 64 -78 225 -232 262 -251 20 -11 49 -30 65
-43 16 -13 54 -32 84 -42 30 -10 81 -31 114 -47 67 -34 165 -48 336 -48 238 0
310 41 310 176 0 56 -1 59 -50 106 l-50 48 -157 -1 c-197 -1 -328 18 -348 51
-4 7 -37 25 -74 41 -115 52 -254 211 -305 349 -15 41 -36 98 -47 125 -16 42
-18 74 -17 195 2 159 -7 196 -52 216 -34 16 -97 22 -142 14z"></path>
<path d="M1772 3551 c-29 -10 -58 -23 -64 -29 -22 -22 -27 -121 -18 -316 11
-211 18 -253 55 -326 12 -25 30 -81 39 -124 11 -52 26 -92 43 -114 14 -19 35
-57 45 -86 11 -28 32 -64 47 -81 16 -16 38 -50 49 -75 12 -25 56 -82 99 -127
43 -44 85 -89 94 -100 42 -48 203 -189 241 -211 24 -14 60 -40 81 -59 20 -18
43 -33 51 -33 8 0 38 -17 67 -37 30 -20 83 -45 118 -55 36 -10 81 -29 100 -43
27 -18 63 -28 146 -41 61 -8 148 -25 195 -36 49 -11 138 -22 210 -25 122 -5
126 -4 179 24 73 37 95 69 95 136 0 28 -6 69 -13 90 -18 53 -55 67 -173 67
-134 0 -269 17 -330 40 -29 11 -91 27 -138 36 -59 10 -102 26 -140 48 -30 19
-73 39 -95 46 -22 7 -56 24 -75 40 -19 15 -50 35 -68 44 -36 19 -68 47 -207
181 -50 50 -103 108 -117 130 -14 22 -35 49 -47 60 -12 10 -31 40 -43 66 -11
26 -29 55 -39 65 -11 10 -29 49 -41 88 -12 39 -34 96 -50 126 -32 64 -44 137
-56 356 -7 124 -13 159 -31 197 -39 81 -117 111 -209 78z"></path>
</g>
</svg>