<?xml version="1.0" encoding="UTF-8"?>
<svg xmlns="http://www.w3.org/2000/svg" xmlns:xlink="http://www.w3.org/1999/xlink" width="30pt" height="25pt" viewBox="0 0 30 25" version="1.1">
<g id="surface1">
<path style=" stroke:none;fill-rule:nonzero;fill:rgb(5.882353%,3.137255%,4.313725%);fill-opacity:1;" d="M 17.035156 3.582031 L 19.074219 7.164062 L 10.917969 7.164062 L 14.996094 0 Z M 17.035156 3.582031 "/>
<path style=" stroke:none;fill-rule:nonzero;fill:rgb(5.882353%,3.137255%,4.313725%);fill-opacity:1;" d="M 26.785156 21.160156 L 28.824219 24.742188 L 20.667969 24.742188 L 24.746094 17.578125 Z M 26.785156 21.160156 "/>
<path style=" stroke:none;fill-rule:nonzero;fill:rgb(5.882353%,3.137255%,4.313725%);fill-opacity:1;" d="M 7.164062 21.160156 L 9.203125 24.742188 L 1.046875 24.742188 L 5.125 17.578125 Z M 7.164062 21.160156 "/>
<path style=" stroke:none;fill-rule:nonzero;fill:rgb(5.882353%,3.137255%,4.313725%);fill-opacity:1;" d="M 6.292969 20.039062 L 14.859375 15.09375 L 16.144531 17.324219 L 7.582031 22.269531 Z M 6.292969 20.039062 "/>
<path style=" stroke:none;fill-rule:nonzero;fill:rgb(5.882353%,3.137255%,4.313725%);fill-opacity:1;" d="M 16.28125 6.867188 L 16.285156 16.757812 L 13.710938 16.757812 L 13.707031 6.867188 Z M 16.28125 6.867188 "/>
<path style=" stroke:none;fill-rule:nonzero;fill:rgb(5.882353%,3.137255%,4.313725%);fill-opacity:1;" d="M 14.996094 15.09375 L 23.558594 20.039062 L 22.273438 22.269531 L 13.707031 17.324219 Z M 14.996094 15.09375 "/>
</g>
</svg>
