 <svg version="1.0" xmlns="http://www.w3.org/2000/svg" width="25" height="25" viewBox="230 100 300 490" preserveAspectRatio="xMidYMid meet">
<metadata>
Created by potrace 1.12, written by Peter Selinger 2001-2015
</metadata>
<g transform="translate(0.000000,700.000000) scale(0.100000,-0.100000)" fill="#000000" stroke="none">
<path d="M3579 5920 c-55 -5 -89 -15 -121 -34 -25 -14 -69 -33 -99 -42 -32
-10 -71 -31 -95 -53 -22 -20 -61 -54 -86 -76 -25 -22 -57 -58 -71 -80 -15 -22
-36 -52 -48 -66 -12 -16 -34 -77 -52 -150 l-31 -124 -3 -805 c-1 -443 -4 -854
-6 -915 -4 -134 -21 -182 -75 -213 -20 -11 -64 -49 -97 -82 -33 -34 -73 -74
-89 -88 -15 -15 -36 -43 -47 -63 -10 -20 -25 -39 -34 -43 -9 -3 -25 -27 -37
-53 -11 -27 -35 -73 -53 -103 -18 -30 -39 -80 -45 -110 -7 -30 -27 -89 -44
-130 l-31 -75 0 -215 0 -215 31 -75 c17 -41 39 -106 48 -145 10 -38 29 -85 42
-103 14 -18 35 -54 46 -80 11 -26 38 -67 59 -92 80 -93 115 -132 136 -153 91
-88 113 -107 122 -107 6 0 28 -15 49 -34 21 -19 63 -44 93 -56 29 -12 63 -30
74 -40 25 -24 62 -38 147 -56 38 -7 86 -23 108 -34 59 -30 180 -43 363 -38
151 4 168 7 242 35 44 17 115 38 158 47 48 11 88 27 106 41 16 14 50 34 77 45
27 12 60 32 74 44 14 13 43 35 65 49 45 27 235 212 235 227 0 6 15 27 33 47
19 21 41 58 51 82 9 25 28 58 42 73 13 16 31 55 39 86 16 58 30 100 67 207 18
51 21 85 22 235 1 182 -8 248 -45 322 -11 21 -25 67 -33 104 -9 41 -26 82 -45
109 -17 24 -38 63 -46 86 -8 23 -31 59 -50 80 -19 22 -35 43 -35 48 0 15 -201
211 -232 227 -15 8 -33 24 -39 36 -38 70 -39 100 -39 993 l0 870 -24 100 c-13
55 -27 117 -30 138 -4 20 -20 52 -35 70 -16 17 -35 46 -44 62 -30 59 -177 183
-245 206 -26 9 -71 28 -101 43 -37 19 -79 30 -140 37 -47 5 -90 8 -96 7 -5 0
-44 -4 -86 -8z m151 -269 c73 -19 185 -73 224 -108 23 -20 56 -57 73 -82 69
-97 64 -7 66 -1146 l2 -1033 25 -28 c14 -14 45 -36 70 -47 25 -11 65 -38 90
-59 69 -61 170 -162 170 -170 0 -5 15 -25 34 -46 19 -21 42 -58 52 -82 10 -25
30 -65 45 -90 38 -61 73 -270 66 -385 -8 -131 -36 -287 -58 -320 -10 -16 -33
-59 -50 -95 -36 -75 -66 -114 -166 -213 -99 -100 -134 -126 -244 -184 -87 -46
-113 -54 -256 -82 -182 -35 -220 -37 -318 -15 -38 8 -108 22 -154 29 -58 10
-97 23 -125 42 -23 15 -64 37 -93 49 -70 29 -218 156 -273 235 -13 19 -32 39
-41 46 -9 7 -26 36 -39 65 -12 29 -36 72 -52 96 -23 33 -33 66 -48 155 -28
172 -32 216 -21 292 5 39 15 106 21 150 6 44 20 96 31 115 11 19 33 64 50 99
35 74 75 125 174 222 116 115 122 119 172 144 26 12 59 35 73 50 l25 27 5
1041 c5 1020 5 1043 25 1073 85 132 137 182 221 212 32 11 77 28 99 36 46 18
76 19 125 7z"></path>
<path d="M3598 4499 c-52 -20 -52 -23 -58 -718 l-5 -645 -70 -54 c-38 -30 -89
-63 -113 -73 -66 -29 -212 -152 -237 -200 -8 -14 -29 -44 -48 -67 -22 -26 -38
-58 -42 -84 -4 -23 -16 -65 -25 -94 -39 -113 -35 -204 17 -387 14 -51 36 -103
48 -117 12 -14 31 -38 41 -55 18 -31 106 -118 169 -169 35 -28 198 -88 315
-116 73 -18 193 -8 255 20 28 13 80 31 118 41 44 11 81 29 108 51 92 77 153
135 176 168 13 19 34 49 47 67 29 40 86 263 86 338 0 31 -14 112 -31 180 -37
146 -51 168 -198 312 -65 63 -108 97 -136 107 -38 12 -73 35 -172 112 l-33 25
0 627 c0 345 -5 645 -10 666 -13 58 -30 70 -108 73 -37 1 -79 -2 -94 -8z"></path>
</g>
</svg>