 <svg version="1.0" xmlns="http://www.w3.org/2000/svg" width="30px" height="25px" viewBox="115 360 480 1" preserveAspectRatio="xMidYMid meet">
<metadata>
Created by potrace 1.12, written by Peter Selinger 2001-2015
</metadata>
<g transform="translate(0.000000,700.000000) scale(0.100000,-0.100000)" fill="#000000" stroke="none">
<path d="M3443 5121 c-24 -4 -53 -16 -65 -27 -13 -12 -44 -33 -69 -47 -58 -33
-85 -64 -137 -160 -68 -124 -68 -247 -1 -339 16 -23 29 -47 29 -55 0 -7 24
-38 54 -69 48 -48 66 -59 153 -89 54 -19 116 -35 138 -35 22 0 85 16 139 35
88 31 104 41 152 91 30 31 54 61 54 66 0 6 17 37 38 71 36 59 37 62 35 153 -1
91 -2 94 -50 179 -57 103 -92 136 -230 213 -28 16 -180 24 -240 13z"></path>
<path d="M2642 4199 c-71 -36 -129 -100 -137 -150 -4 -24 -2 -56 4 -71 23 -61
166 -224 222 -254 15 -7 29 -20 32 -28 3 -8 30 -27 59 -42 29 -14 68 -37 86
-51 18 -13 64 -35 102 -48 39 -13 83 -32 98 -43 40 -28 52 -31 199 -47 170
-19 312 -19 482 0 109 12 143 20 180 41 25 14 76 37 113 49 37 13 82 35 100
48 18 14 53 35 78 47 24 13 57 34 72 49 14 14 52 49 83 76 74 65 79 71 125
134 47 66 57 113 35 168 -25 63 -137 143 -200 143 -35 0 -144 -64 -195 -115
-61 -61 -134 -120 -170 -138 -19 -10 -50 -28 -68 -42 -18 -13 -59 -29 -90 -35
-31 -6 -91 -22 -132 -36 -98 -33 -207 -41 -280 -19 -30 8 -105 28 -166 44 -86
22 -121 37 -158 65 -26 20 -53 36 -61 36 -7 0 -32 18 -56 40 -24 22 -67 62
-95 88 -111 103 -187 129 -262 91z"></path>
<path d="M1962 3634 c-73 -18 -87 -34 -103 -117 -10 -48 -9 -68 5 -121 16 -60
24 -70 126 -172 139 -140 197 -194 209 -194 5 0 28 -16 52 -36 23 -19 61 -45
83 -56 23 -11 55 -33 71 -48 17 -15 48 -33 70 -40 22 -7 60 -27 83 -46 28 -21
64 -37 100 -44 32 -6 75 -24 97 -40 42 -29 86 -43 169 -55 27 -4 81 -19 120
-35 98 -39 208 -50 501 -50 286 0 405 11 490 46 33 14 104 33 158 44 71 14
109 27 140 49 24 17 67 34 100 41 39 8 69 22 92 41 18 16 55 37 82 46 26 8 62
28 78 43 17 15 48 37 71 48 22 11 46 28 54 37 7 9 34 28 59 42 25 15 62 42 81
61 271 264 261 252 280 337 12 55 -3 154 -29 186 -10 12 -44 25 -91 35 -70 15
-80 15 -133 0 -47 -14 -67 -27 -119 -82 -35 -36 -73 -76 -86 -87 -13 -12 -40
-38 -60 -57 -20 -20 -50 -44 -67 -55 -16 -10 -36 -27 -43 -37 -7 -10 -39 -31
-70 -47 -31 -16 -65 -38 -76 -49 -10 -12 -40 -28 -66 -37 -27 -9 -67 -29 -89
-45 -22 -16 -71 -37 -108 -46 -37 -9 -88 -27 -113 -39 -69 -35 -108 -42 -329
-65 -196 -20 -210 -20 -370 -5 -233 23 -286 32 -360 65 -37 15 -95 36 -131 45
-36 9 -80 28 -98 42 -19 14 -57 34 -85 44 -28 10 -62 29 -76 43 -14 13 -46 34
-71 46 -45 23 -104 69 -170 134 -19 18 -45 39 -57 45 -12 6 -29 24 -39 39 -9
16 -29 37 -44 47 -15 10 -35 31 -44 46 -32 54 -142 78 -244 53z"></path>
<path d="M1294 3089 c-17 -5 -52 -31 -78 -58 -44 -48 -46 -53 -46 -110 0 -73
10 -100 58 -158 70 -85 317 -325 374 -364 31 -21 60 -43 63 -49 3 -6 31 -26
61 -45 30 -19 54 -39 54 -44 0 -5 19 -18 43 -29 23 -11 51 -30 62 -42 11 -12
44 -33 73 -46 30 -13 67 -35 83 -48 15 -13 52 -32 81 -41 29 -10 70 -31 91
-47 21 -16 67 -38 102 -47 36 -10 82 -30 103 -44 21 -15 68 -33 112 -42 41 -8
105 -29 141 -45 49 -22 102 -35 205 -50 76 -11 167 -29 201 -39 87 -28 233
-41 462 -41 233 0 382 13 471 40 36 11 128 30 205 41 104 15 155 27 200 49 33
15 96 36 140 44 49 10 94 27 117 43 21 14 67 34 103 44 35 9 81 31 102 47 21
16 59 37 85 45 26 9 64 29 85 45 21 17 55 36 76 43 20 7 58 30 83 51 26 21 52
38 59 38 6 0 20 10 31 21 10 12 40 36 65 53 192 130 527 457 551 539 3 12 6
48 7 80 1 56 -1 60 -45 107 -49 53 -89 70 -159 70 -88 0 -89 -1 -282 -201
-136 -140 -378 -339 -412 -339 -6 0 -28 -16 -49 -35 -21 -19 -60 -43 -86 -54
-26 -12 -61 -32 -79 -45 -18 -13 -59 -34 -91 -47 -33 -12 -80 -34 -104 -50
-24 -15 -62 -30 -85 -34 -23 -4 -73 -22 -112 -40 -44 -21 -104 -40 -162 -50
-50 -8 -120 -26 -155 -39 -100 -38 -224 -49 -553 -49 -330 0 -452 11 -554 49
-36 14 -108 32 -160 40 -67 11 -111 24 -147 44 -28 16 -75 35 -105 41 -30 6
-85 28 -124 49 -38 21 -82 40 -96 43 -14 4 -41 18 -60 32 -19 14 -59 37 -89
51 -30 14 -69 39 -87 55 -19 16 -37 29 -42 29 -9 0 -109 71 -200 143 -86 66
-142 120 -350 334 -29 30 -68 59 -85 64 -38 11 -111 10 -152 -2z"></path>
</g>
</svg>