<?xml version="1.0" encoding="UTF-8" standalone="no"?>
<!DOCTYPE svg PUBLIC "-//W3C//DTD SVG 1.1//EN" "http://www.w3.org/Graphics/SVG/1.1/DTD/svg11.dtd">
<svg version="1.1" xmlns="http://www.w3.org/2000/svg" xmlns:xlink="http://www.w3.org/1999/xlink" preserveAspectRatio="xMidYMid meet" viewBox="159.1634180007769 24.109904546843147 346.32832755947254 346.32832755947254" width="25" height="25"><defs><path d="M390.31 136.73C478.97 225.06 524.53 323.19 491.98 355.74C459.42 388.29 361.01 343 272.35 254.68C183.68 166.35 138.13 68.21 170.68 35.66C203.23 3.11 301.64 48.4 390.31 136.73Z" id="i5Tj8VVLE"></path><clipPath id="clipg4tbKzbva"><use xlink:href="#i5Tj8VVLE" opacity="1"></use></clipPath><path d="M363.07 197.51C363.07 214.07 349.63 227.51 333.07 227.51C316.51 227.51 303.07 214.07 303.07 197.51C303.07 180.96 316.51 167.51 333.07 167.51C349.63 167.51 363.07 180.96 363.07 197.51Z" id="d2psp3Qhs"></path><path d="M389.73 255.25C301.4 343.92 203.26 389.47 170.71 356.92C138.17 324.37 183.45 225.96 271.78 137.29C360.11 48.63 458.25 3.07 490.8 35.63C523.34 68.18 478.06 166.59 389.73 255.25Z" id="e3LOdR1Gf"></path><clipPath id="clipko3dQ67Cp"><use xlink:href="#e3LOdR1Gf" opacity="1"></use></clipPath></defs><g><g><g clip-path="url(#clipg4tbKzbva)"><use xlink:href="#i5Tj8VVLE" opacity="1" fill-opacity="0" stroke="#000000" stroke-width="56" stroke-opacity="1"></use></g></g><g><use xlink:href="#d2psp3Qhs" opacity="1" fill="#0f080b" fill-opacity="1"></use></g><g><g clip-path="url(#clipko3dQ67Cp)"><use xlink:href="#e3LOdR1Gf" opacity="1" fill-opacity="0" stroke="#000000" stroke-width="56" stroke-opacity="1"></use></g></g></g></svg>