<?xml version="1.0" encoding="UTF-8" standalone="no"?>
<!DOCTYPE svg PUBLIC "-//W3C//DTD SVG 1.1//EN" "http://www.w3.org/Graphics/SVG/1.1/DTD/svg11.dtd">
<svg version="1.1" xmlns="http://www.w3.org/2000/svg" xmlns:xlink="http://www.w3.org/1999/xlink" preserveAspectRatio="xMidYMid meet" viewBox="106.02 40.424 449.864 390.463" width="30" height="25"><defs><path d="M362.74 96.38L394.58 152.33L330.88 152.33L267.19 152.33L299.03 96.38L330.88 40.42L362.74 96.38Z" id="b1PSHJiQiw"></path><path d="M515.04 370.93L546.88 426.89L483.18 426.89L419.49 426.89L451.33 370.93L483.18 314.98L515.04 370.93Z" id="a5Mx8H8Oxd"></path><path d="M208.57 370.93L240.42 426.89L176.72 426.89L113.02 426.89L144.87 370.93L176.72 314.98L208.57 370.93Z" id="d78uNzUIg"></path><path d="M194.97 353.41L328.73 276.18L348.84 311L215.08 388.24L194.97 353.41Z" id="c1vFGvobjn"></path><path d="M350.99 147.7L351 302.16L310.79 302.16L310.77 147.7L350.99 147.7Z" id="d15yAcHiC7"></path><path d="M330.88 276.18L464.65 353.39L444.54 388.22L310.77 311L330.88 276.18Z" id="a3wLUDEHfY"></path></defs><g><g><use xlink:href="#b1PSHJiQiw" opacity="1" fill="#0f080b" fill-opacity="1"></use></g><g><use xlink:href="#a5Mx8H8Oxd" opacity="1" fill="#0f080b" fill-opacity="1"></use></g><g><use xlink:href="#d78uNzUIg" opacity="1" fill="#0f080b" fill-opacity="1"></use></g><g><use xlink:href="#c1vFGvobjn" opacity="1" fill="#0f080b" fill-opacity="1"></use></g><g><use xlink:href="#d15yAcHiC7" opacity="1" fill="#0f080b" fill-opacity="1"></use></g><g><use xlink:href="#a3wLUDEHfY" opacity="1" fill="#0f080b" fill-opacity="1"></use></g></g></svg>