<?xml version="1.0" encoding="UTF-8"?>
<svg xmlns="http://www.w3.org/2000/svg" xmlns:xlink="http://www.w3.org/1999/xlink" width="30pt" height="30pt" viewBox="0 0 30 30" version="1.1">
<g id="surface1">
<path style=" stroke:none;fill-rule:nonzero;fill:rgb(0%,0%,0%);fill-opacity:1;" d="M 9.640625 0.613281 C 9.398438 0.871094 9.175781 1.109375 9.140625 1.144531 C 9.113281 1.171875 8.972656 1.3125 8.839844 1.445312 C 8.707031 1.578125 8.566406 1.714844 8.539062 1.75 C 8.503906 1.785156 8.09375 2.191406 7.625 2.652344 C 7.152344 3.105469 6.765625 3.515625 6.765625 3.550781 C 6.765625 3.585938 6.65625 3.683594 6.523438 3.765625 C 6.25 3.933594 5.972656 4.480469 6.035156 4.722656 C 6.078125 4.898438 6.503906 5.332031 9.148438 7.898438 C 11.03125 9.734375 11.300781 9.976562 11.433594 9.976562 C 11.617188 9.976562 12.089844 9.675781 12.195312 9.488281 C 12.257812 9.382812 12.398438 9.246094 12.496094 9.179688 C 12.601562 9.117188 12.753906 8.964844 12.832031 8.839844 C 12.90625 8.714844 13.046875 8.566406 13.136719 8.519531 C 13.226562 8.46875 13.351562 8.335938 13.421875 8.234375 C 13.484375 8.121094 13.632812 7.972656 13.746094 7.910156 C 13.847656 7.84375 13.972656 7.714844 14.015625 7.632812 C 14.058594 7.542969 14.199219 7.394531 14.332031 7.3125 C 14.460938 7.226562 14.625 7.066406 14.6875 6.960938 C 14.742188 6.859375 14.886719 6.71875 15 6.65625 C 15.105469 6.585938 15.238281 6.460938 15.285156 6.363281 C 15.335938 6.273438 15.46875 6.152344 15.570312 6.097656 C 15.929688 5.910156 16.03125 5.40625 15.761719 5.175781 C 15.601562 5.050781 14.34375 3.84375 12.800781 2.335938 C 10.617188 0.203125 10.542969 0.140625 10.304688 0.148438 C 10.125 0.148438 9.996094 0.230469 9.640625 0.613281 Z M 9.640625 0.613281 "/>
<path style=" stroke:none;fill-rule:nonzero;fill:rgb(0%,0%,0%);fill-opacity:1;" d="M 19.152344 3.863281 C 18.941406 3.960938 18.214844 4.679688 15.035156 7.953125 C 14.085938 8.929688 12.78125 10.25 12.132812 10.882812 C 11.300781 11.699219 10.953125 12.082031 10.953125 12.195312 C 10.953125 12.371094 10.898438 12.363281 12.070312 12.375 C 12.898438 12.390625 12.960938 12.40625 13.394531 12.613281 C 13.648438 12.738281 13.898438 12.835938 13.953125 12.835938 C 14.21875 12.835938 14.617188 13.003906 14.847656 13.214844 C 14.984375 13.339844 15.175781 13.464844 15.257812 13.492188 C 15.460938 13.554688 16.597656 14.785156 16.773438 15.125 C 16.84375 15.265625 16.980469 15.480469 17.070312 15.605469 C 17.335938 15.949219 17.53125 17.015625 17.546875 18.117188 C 17.546875 18.628906 17.574219 19.058594 17.601562 19.089844 C 17.664062 19.15625 17.964844 18.941406 18.375 18.53125 C 18.570312 18.335938 20.085938 16.792969 21.734375 15.113281 C 23.386719 13.421875 24.992188 11.789062 25.296875 11.484375 C 25.863281 10.925781 26.234375 10.394531 26.234375 10.15625 C 26.234375 10.089844 26.136719 9.84375 26.007812 9.613281 C 25.835938 9.292969 25.542969 8.964844 24.734375 8.203125 C 23.636719 7.171875 22.535156 6.113281 21.113281 4.714844 C 20.644531 4.261719 20.199219 3.863281 20.105469 3.832031 C 19.871094 3.738281 19.394531 3.761719 19.152344 3.863281 Z M 19.152344 3.863281 "/>
<path style=" stroke:none;fill-rule:nonzero;fill:rgb(0%,0%,0%);fill-opacity:1;" d="M 10.582031 14.121094 C 9.761719 14.398438 9.65625 14.457031 9.3125 14.789062 C 8.945312 15.152344 8.9375 15.167969 9.035156 15.355469 C 9.089844 15.460938 9.523438 15.929688 9.992188 16.386719 C 10.464844 16.855469 11.671875 18.050781 12.683594 19.054688 C 14.957031 21.300781 14.851562 21.257812 15.53125 20.265625 C 15.859375 19.792969 15.898438 19.667969 16.027344 18.941406 C 16.1875 17.957031 16.039062 16.527344 15.726562 16.09375 C 15.636719 15.976562 15.46875 15.710938 15.355469 15.523438 C 15.222656 15.308594 14.964844 15.042969 14.679688 14.824219 C 14.070312 14.363281 14.15625 14.414062 13.359375 14.113281 C 12.796875 13.90625 12.550781 13.847656 12.070312 13.835938 C 11.519531 13.8125 11.40625 13.835938 10.582031 14.121094 Z M 10.582031 14.121094 "/>
<path style=" stroke:none;fill-rule:nonzero;fill:rgb(0%,0%,0%);fill-opacity:1;" d="M 22.988281 15.179688 C 22.261719 15.929688 21.605469 16.589844 21.539062 16.660156 C 21.46875 16.722656 21.320312 16.871094 21.210938 16.988281 C 20.980469 17.226562 20.945312 17.261719 20.371094 17.8125 C 20.140625 18.035156 19.953125 18.257812 19.953125 18.3125 C 19.953125 18.363281 20.289062 18.738281 20.707031 19.144531 C 21.117188 19.550781 21.503906 19.933594 21.558594 20.003906 C 21.613281 20.066406 21.746094 20.203125 21.851562 20.300781 C 21.960938 20.398438 22.695312 21.117188 23.492188 21.90625 C 24.292969 22.695312 25.011719 23.386719 25.089844 23.441406 C 25.171875 23.496094 25.320312 23.609375 25.421875 23.679688 L 25.613281 23.8125 L 25.941406 23.574219 C 26.21875 23.378906 26.511719 23.121094 26.945312 22.6875 C 29.34375 20.289062 30.070312 19.519531 30.070312 19.382812 C 30.070312 19.214844 29.847656 18.976562 27.515625 16.6875 C 25.351562 14.566406 24.542969 13.8125 24.425781 13.820312 C 24.363281 13.820312 23.722656 14.433594 22.988281 15.179688 Z M 22.988281 15.179688 "/>
<path style=" stroke:none;fill-rule:nonzero;fill:rgb(0%,0%,0%);fill-opacity:1;" d="M 6.054688 15.488281 C 5.714844 15.550781 5.601562 15.65625 5.386719 16.117188 C 5.226562 16.464844 5.203125 16.582031 5.203125 17.371094 C 5.199219 18.113281 5.226562 18.347656 5.378906 18.90625 C 5.484375 19.269531 5.601562 19.75 5.652344 19.96875 C 5.699219 20.203125 5.8125 20.460938 5.929688 20.617188 C 6.042969 20.753906 6.167969 20.984375 6.214844 21.125 C 6.257812 21.265625 6.410156 21.523438 6.550781 21.691406 C 6.996094 22.234375 8.121094 23.308594 8.378906 23.441406 C 8.519531 23.519531 8.722656 23.652344 8.832031 23.742188 C 8.945312 23.832031 9.210938 23.964844 9.417969 24.035156 C 9.628906 24.105469 9.984375 24.25 10.214844 24.363281 C 10.679688 24.601562 11.363281 24.699219 12.558594 24.699219 C 14.21875 24.699219 14.722656 24.410156 14.722656 23.46875 C 14.722656 23.078125 14.714844 23.058594 14.371094 22.730469 L 14.023438 22.394531 L 12.929688 22.402344 C 11.554688 22.410156 10.640625 22.277344 10.5 22.046875 C 10.472656 21.996094 10.242188 21.871094 9.984375 21.761719 C 9.179688 21.398438 8.210938 20.289062 7.855469 19.324219 C 7.75 19.039062 7.605469 18.640625 7.527344 18.453125 C 7.417969 18.160156 7.402344 17.9375 7.410156 17.09375 C 7.421875 15.984375 7.359375 15.726562 7.046875 15.585938 C 6.808594 15.472656 6.371094 15.433594 6.054688 15.488281 Z M 6.054688 15.488281 "/>
<path style=" stroke:none;fill-rule:nonzero;fill:rgb(0%,0%,0%);fill-opacity:1;" d="M 1.199219 16.039062 C 0.996094 16.109375 0.796875 16.199219 0.753906 16.242188 C 0.601562 16.394531 0.566406 17.085938 0.628906 18.445312 C 0.703125 19.917969 0.753906 20.210938 1.011719 20.722656 C 1.09375 20.894531 1.222656 21.285156 1.285156 21.585938 C 1.359375 21.949219 1.464844 22.226562 1.582031 22.382812 C 1.679688 22.515625 1.828125 22.777344 1.898438 22.980469 C 1.972656 23.175781 2.121094 23.429688 2.226562 23.546875 C 2.335938 23.65625 2.492188 23.894531 2.566406 24.070312 C 2.652344 24.246094 2.957031 24.640625 3.257812 24.957031 C 3.558594 25.261719 3.851562 25.578125 3.914062 25.652344 C 4.207031 25.988281 5.332031 26.972656 5.59375 27.125 C 5.761719 27.222656 6.015625 27.40625 6.160156 27.539062 C 6.300781 27.664062 6.460938 27.765625 6.515625 27.765625 C 6.570312 27.765625 6.78125 27.886719 6.984375 28.027344 C 7.191406 28.164062 7.5625 28.339844 7.808594 28.410156 C 8.058594 28.480469 8.371094 28.613281 8.503906 28.710938 C 8.691406 28.835938 8.945312 28.90625 9.523438 28.996094 C 9.949219 29.050781 10.554688 29.167969 10.882812 29.246094 C 11.226562 29.324219 11.847656 29.398438 12.347656 29.421875 C 13.199219 29.457031 13.226562 29.449219 13.597656 29.253906 C 14.105469 28.996094 14.261719 28.773438 14.261719 28.304688 C 14.261719 28.109375 14.21875 27.824219 14.167969 27.675781 C 14.042969 27.308594 13.785156 27.210938 12.960938 27.210938 C 12.027344 27.210938 11.085938 27.089844 10.660156 26.929688 C 10.457031 26.851562 10.027344 26.742188 9.699219 26.679688 C 9.285156 26.609375 8.984375 26.496094 8.722656 26.34375 C 8.511719 26.210938 8.210938 26.070312 8.058594 26.023438 C 7.90625 25.972656 7.667969 25.855469 7.535156 25.746094 C 7.402344 25.640625 7.1875 25.5 7.058594 25.4375 C 6.808594 25.304688 6.585938 25.109375 5.617188 24.175781 C 5.265625 23.824219 4.898438 23.421875 4.800781 23.265625 C 4.703125 23.113281 4.554688 22.925781 4.472656 22.847656 C 4.386719 22.777344 4.253906 22.570312 4.171875 22.386719 C 4.09375 22.207031 3.96875 22.003906 3.898438 21.933594 C 3.824219 21.863281 3.699219 21.59375 3.613281 21.320312 C 3.53125 21.050781 3.375 20.652344 3.265625 20.441406 C 3.042969 19.996094 2.957031 19.484375 2.875 17.957031 C 2.824219 17.09375 2.785156 16.847656 2.65625 16.582031 C 2.386719 16.019531 1.84375 15.808594 1.199219 16.039062 Z M 1.199219 16.039062 "/>
</g>
</svg>
